<svg id="Layer_1" data-name="Layer 1" xmlns="http://www.w3.org/2000/svg" viewBox="0 0 589.74 414.35"><title>reedit_logo</title><path d="M133.45,99.51c8.72-3.23,19.38-4.2,29.39-4.2,20.35,0,33.6,5.17,43.29,15.18,9.37,10,14.21,24.55,14.21,40.7,0,30.69-14.21,47.16-35.86,57.17V209c16.8,4.2,25.84,20.67,31,52.33,5.49,33.27,9,46.52,11.63,52.65H213.24c-3.23-6.78-7.11-26.49-12-54.91-5.49-31.66-16.47-44.9-42-44.9h-12V314H133.45ZM147.34,203.2h12.28c26.81,0,46.19-19.06,46.19-49.42,0-29.07-12-46.52-43.61-46.52a65.08,65.08,0,0,0-14.86,1.29Z" transform="translate(-126.07 -90.47)" style="fill:#006838"/><path d="M260.06,230.66c0,62.34,21.64,73,39.09,73,10,0,18.09-2.59,23.26-6.14l3.23,10.66c-7.43,5.17-18.73,7.75-29.07,7.75-33.92,0-50.72-32-50.72-78.82,0-49.1,17.77-80.76,46.19-80.76,30.69,0,39.09,37.8,39.09,65.25v9Zm56.21-11.31c.65-38.12-15.18-50.72-26.49-50.72-18.09,0-27.78,25.84-29.39,50.72Z" transform="translate(-126.07 -90.47)" style="fill:#006838"/><path d="M431.9,205.79H374.4v95.94h65.9V314H360.51V96.28H436.1v12.28H374.4v85h57.5Z" transform="translate(-126.07 -90.47)" style="fill:#231f20"/><path d="M541.4,90.47V282.35c0,7.75,1,25.84,1.29,31.66h-12l-1.29-20.67h-1.29c-4.52,11-14.86,23.26-32.62,23.26-22,0-43.29-23.26-43.29-79.47,0-55.56,22.61-80.76,44.9-80.76,10,0,22.29,4.2,29.72,20h.65V90.47Zm-13.89,127c0-3.56,0-7.43-.32-11-1.29-20.35-13.89-37.8-28.1-37.8-24.23,0-32.3,33.27-32.3,67.84,0,34.89,8.72,67.84,30.36,67.84,9,0,22.61-4.85,29.72-34.56a57.31,57.31,0,0,0,.65-10.66Z" transform="translate(-126.07 -90.47)" style="fill:#231f20"/><path d="M594,96.28V314H580.15V96.28Z" transform="translate(-126.07 -90.47)" style="fill:#1b75bc"/><path d="M661.23,108.23h-40.7v-12h95.29v12h-40.7V314H661.23Z" transform="translate(-126.07 -90.47)" style="fill:#1b75bc"/><path d="M178.85,465.67c-3.84,2.1-9.44,3.32-16.43,3.32-18.53,0-36.35-14.68-36.35-58.72,0-47.71,22-61.17,38.1-61.17,6.47,0,11.36,1.22,13.81,2.8l-2.45,6.64c-3-1.4-5.77-2.62-12.58-2.62-12.23,0-29,12.93-29,53,0,41.07,14.86,53.3,29.71,53.3a27.34,27.34,0,0,0,13.11-3Z" transform="translate(-126.07 -90.47)" style="fill:#231f20"/><path d="M208.55,469.34c-11.88,0-24.29-12.41-24.29-43.34s12.41-43.34,25.51-43.34c11.89,0,24.12,12.41,24.12,43.34s-12.41,43.34-25.16,43.34Zm.7-6.64c14.16,0,16.78-23.07,16.78-36.7s-2.62-36.7-17.13-36.7c-14.16,0-16.77,23.07-16.77,36.7s2.62,36.7,17,36.7Z" transform="translate(-126.07 -90.47)" style="fill:#231f20"/><path d="M250.31,403.45c0-10.31-.52-13.46-.7-19.4h6.82l.35,10.31h.35a19.74,19.74,0,0,1,18.53-11.71c8.91,0,19.05,5.94,19.05,27.26v58h-7.52V412.89c0-11.88-2.1-23.77-13.81-23.77-6.82,0-13.46,5.94-15.2,17.48a49.28,49.28,0,0,0-.35,7.34v54h-7.52Z" transform="translate(-126.07 -90.47)" style="fill:#231f20"/><path d="M312,458c2.79,1.92,7.34,4.37,12.58,4.37,8.74,0,14.5-5.94,14.5-15.21,0-7.51-2.27-13.11-11.36-19.57-9.26-6.64-17-12.93-17-23.77,0-12.76,9.79-21.15,20.45-21.15a22.41,22.41,0,0,1,13.63,4.55l-3.32,6.11a16.88,16.88,0,0,0-10.84-4c-8,0-12.41,6.47-12.41,12.93,0,6.82,2.27,10.66,10.84,17,8,5.77,17.65,12.76,17.65,25.87,0,16.6-11,23.94-22.55,23.94-5.59,0-11.53-1.92-15-4.89Z" transform="translate(-126.07 -90.47)" style="fill:#231f20"/><path d="M405.49,446.79c0,9.44.52,15.9.7,21.15h-6.82l-.7-8.74h-.35c-1.75,3.15-7.87,10.14-17.13,10.14-13.81,0-19.23-11.18-19.23-30.93V384.05h7.52v52.78c0,14.51,2.1,26,13.11,26,10.48,0,14.5-10.14,15-14.68a56.7,56.7,0,0,0,.35-7.69V384.05h7.51Z" transform="translate(-126.07 -90.47)" style="fill:#231f20"/><path d="M425.75,347h7.51V467.94h-7.51Z" transform="translate(-126.07 -90.47)" style="fill:#231f20"/><path d="M465.59,365.7v18.35H481.5v6.47H465.59v57.15c0,11.71,3.85,14.86,8.91,14.86a19.6,19.6,0,0,0,5.07-.52l.87,5.77c-1.92.87-4,1.23-7.51,1.23-4.55,0-8.56-1.4-11.18-4.89s-3.67-8.56-3.67-19.22V390.52H447.59v-6.47h10.49v-14Z" transform="translate(-126.07 -90.47)" style="fill:#231f20"/><path d="M530.77,449.06c0,6.12,0,13.63.7,18.87h-7l-.7-9.26h-.52c-3.15,6.47-8.56,10.66-15.73,10.66-10.31,0-18.52-8.74-18.52-23.07,0-20.27,15.2-29.71,34.25-29.88v-3.15c0-14.33-2.28-23.94-14.5-23.94a20.68,20.68,0,0,0-11.88,4l-2.1-5.77c2.8-2.45,9.26-4.89,15.55-4.89,11.36,0,20.45,6.64,20.45,26.74Zm-7.51-26.21c-6.47,0-26.39.52-26.39,22.89,0,12.58,6.11,17,11.71,17,7.17,0,12.76-5.77,14.33-15.9a29.9,29.9,0,0,0,.35-5.42Z" transform="translate(-126.07 -90.47)" style="fill:#231f20"/><path d="M551.38,403.45c0-10.31-.52-13.46-.7-19.4h6.82l.35,10.31h.35a19.74,19.74,0,0,1,18.53-11.71c8.91,0,19.05,5.94,19.05,27.26v58h-7.52V412.89c0-11.88-2.09-23.77-13.81-23.77-6.82,0-13.46,5.94-15.2,17.48a49.64,49.64,0,0,0-.35,7.34v54h-7.52Z" transform="translate(-126.07 -90.47)" style="fill:#231f20"/><path d="M653.78,465.49a25.73,25.73,0,0,1-13.63,3.5c-16.43,0-28-14.86-28-42.82,0-22.89,10.31-43.52,29.88-43.52,4,0,8.91,1.22,11.54,3l-2.45,6.64a20.31,20.31,0,0,0-10.31-2.8c-15,0-20.8,19.58-20.8,37.23,0,22.37,8.21,35.65,21.5,35.65A21.7,21.7,0,0,0,652,459.72Z" transform="translate(-126.07 -90.47)" style="fill:#231f20"/><path d="M670.2,384.05l12.93,51c1.92,7.52,2.79,13.63,4.19,19.4h.35c1-5.07,3-12.41,4.55-19.4l11.88-51h7.69l-11.53,47c-5.94,24.47-11.88,47.36-22.19,61.34-5.07,7-10,10.84-12.59,12.41l-3.84-6.29A48.14,48.14,0,0,0,674,485.77,64.65,64.65,0,0,0,681.91,469a15.08,15.08,0,0,0,.87-4.55,9.63,9.63,0,0,0-.35-3.15l-19.92-77.25Z" transform="translate(-126.07 -90.47)" style="fill:#231f20"/><line x1="7.37" y1="245.3" x2="589.74" y2="245.3" style="fill:none;stroke:#f15a29;stroke-miterlimit:10;stroke-width:6px"/></svg>